<svg width="148" height="25" viewBox="0 0 148 25" fill="none" xmlns="http://www.w3.org/2000/svg">
<path d="M0.536133 17.0696C0.536133 16.3766 0.782524 15.776 1.27531 15.2678C1.78349 14.7597 2.39176 14.5056 3.10014 14.5056C3.80851 14.5056 4.40909 14.7597 4.90187 15.2678C5.41005 15.776 5.66414 16.3766 5.66414 17.0696C5.66414 17.7779 5.41005 18.3862 4.90187 18.8944C4.40909 19.4026 3.80851 19.6567 3.10014 19.6567C2.39176 19.6567 1.78349 19.4026 1.27531 18.8944C0.782524 18.3862 0.536133 17.7779 0.536133 17.0696Z" fill="#7041FB"/>
<path d="M10.6907 20.5344L20.3924 0.391998L23.2105 1.70865L13.5319 21.8511L10.6907 20.5344Z" fill="#7041FB"/>
<path d="M32.418 0.576792C33.034 0.576792 33.5421 0.776984 33.9425 1.17737C34.3583 1.56235 34.5662 2.04744 34.5662 2.63261C34.5662 3.21779 34.3583 3.71057 33.9425 4.11096C33.5421 4.49594 33.034 4.68844 32.418 4.68844C31.7712 4.68844 31.2476 4.49594 30.8472 4.11096C30.4469 3.72597 30.2467 3.23319 30.2467 2.63261C30.2467 2.04744 30.4469 1.56235 30.8472 1.17737C31.263 0.776984 31.7866 0.576792 32.418 0.576792ZM34.7741 15.7067C34.7741 17.4469 34.4507 18.8867 33.8039 20.0263C33.1572 21.1812 32.1947 22.0975 30.9165 22.7751C29.6538 23.468 28.0292 24.007 26.0426 24.392L25.4882 21.597C26.7972 21.3044 27.8521 20.9425 28.6528 20.5113C29.469 20.0802 30.085 19.5027 30.5008 18.7789C30.9165 18.0397 31.1244 17.0927 31.1244 15.9377V9.49306H26.7356V6.99835H34.7741V15.7067Z" fill="white"/>
<path d="M44.6515 6.58257C46.5148 6.58257 47.9701 7.17544 49.0172 8.3612C50.0798 9.53155 50.6111 11.11 50.6111 13.0965C50.6111 15.16 50.0875 16.7693 49.0403 17.9242C47.9932 19.0792 46.5302 19.6567 44.6515 19.6567C42.7728 19.6567 41.3098 19.0869 40.2627 17.9473C39.2155 16.7924 38.6919 15.1831 38.6919 13.1196C38.6919 11.8107 38.9229 10.6711 39.3849 9.70095C39.8623 8.71539 40.5476 7.95311 41.4407 7.41414C42.3493 6.85976 43.4196 6.58257 44.6515 6.58257ZM44.6515 9.28517C43.8969 9.28517 43.3426 9.59315 42.9884 10.2091C42.6342 10.8097 42.4571 11.7799 42.4571 13.1196C42.4571 14.4748 42.6342 15.4603 42.9884 16.0763C43.3426 16.6769 43.8969 16.9772 44.6515 16.9772C45.4061 16.9772 45.9605 16.6692 46.3146 16.0532C46.6688 15.4372 46.8459 14.4517 46.8459 13.0965C46.8459 11.7722 46.6688 10.8097 46.3146 10.2091C45.9605 9.59315 45.4061 9.28517 44.6515 9.28517Z" fill="white"/>
<path d="M56.8388 8.2226C57.8706 7.12925 59.0717 6.58257 60.4423 6.58257C61.5202 6.58257 62.3518 6.90595 62.937 7.55273C63.5222 8.18411 63.8148 9.08497 63.8148 10.2553V19.264H60.1651V11.2717C60.1651 10.5325 60.0804 10.0166 59.911 9.72405C59.7416 9.43146 59.4336 9.28517 58.987 9.28517C58.6175 9.28517 58.2556 9.41606 57.9014 9.67785C57.5626 9.92424 57.2084 10.2938 56.8388 10.7866V19.264H53.1892V2.12443L56.8388 1.75485V8.2226Z" fill="white"/>
<path d="M67.0396 6.99835H70.2273L70.4814 8.4074C71.0358 7.79142 71.6132 7.33714 72.2138 7.04455C72.8298 6.73656 73.5228 6.58257 74.2927 6.58257C75.3553 6.58257 76.1792 6.90595 76.7644 7.55273C77.3649 8.19951 77.6652 9.10037 77.6652 10.2553V19.264H74.0156V11.3179C74.0156 10.5479 73.9309 10.0166 73.7615 9.72405C73.5921 9.43146 73.2841 9.28517 72.8375 9.28517C72.4679 9.28517 72.106 9.40836 71.7518 9.65475C71.4131 9.88574 71.0589 10.2322 70.6893 10.6942V19.264H67.0396V6.99835Z" fill="white"/>
<path d="M92.6244 7.71442C91.8237 8.03781 90.6456 8.1995 89.0903 8.1995C89.891 8.55369 90.4839 8.97718 90.8689 9.46996C91.2693 9.96274 91.4695 10.5941 91.4695 11.3641C91.4695 12.1495 91.2539 12.8578 90.8227 13.4892C90.3915 14.1052 89.7832 14.5903 88.9979 14.9445C88.2125 15.2986 87.3039 15.4757 86.2722 15.4757C85.764 15.4757 85.2866 15.4295 84.84 15.3371C84.7168 15.3987 84.6167 15.4988 84.5397 15.6374C84.4781 15.7606 84.4473 15.8915 84.4473 16.0301C84.4473 16.2611 84.532 16.4459 84.7014 16.5845C84.8862 16.7077 85.2481 16.7693 85.7871 16.7693H87.8198C88.7438 16.7693 89.5599 16.9233 90.2683 17.2313C90.9767 17.5393 91.5234 17.9627 91.9084 18.5017C92.2933 19.0407 92.4858 19.649 92.4858 20.3266C92.4858 21.6047 91.9238 22.598 90.7996 23.3063C89.6908 24.0301 88.0662 24.392 85.9257 24.392C84.4011 24.392 83.2 24.2303 82.3222 23.9069C81.4598 23.5989 80.8516 23.16 80.4974 22.5903C80.1586 22.0205 79.9892 21.3044 79.9892 20.442H83.2231C83.2231 20.827 83.2924 21.1273 83.431 21.3429C83.585 21.5585 83.8622 21.7202 84.2626 21.828C84.6629 21.9358 85.2481 21.9897 86.0181 21.9897C87.096 21.9897 87.8352 21.8665 88.2356 21.6201C88.6514 21.3737 88.8593 21.0272 88.8593 20.5806C88.8593 20.2111 88.7053 19.9108 88.3973 19.6798C88.1047 19.4642 87.6658 19.3564 87.0806 19.3564H85.1403C83.8776 19.3564 82.9305 19.1331 82.2991 18.6865C81.6677 18.2245 81.3521 17.6394 81.3521 16.931C81.3521 16.469 81.4676 16.0378 81.6985 15.6374C81.9449 15.2216 82.2837 14.8752 82.7149 14.598C81.9449 14.1822 81.3906 13.6971 81.0518 13.1427C80.713 12.5729 80.5436 11.8877 80.5436 11.0869C80.5436 10.1783 80.7746 9.38526 81.2366 8.70769C81.6985 8.03011 82.3453 7.51423 83.1769 7.16004C84.0085 6.79046 84.9555 6.60566 86.0181 6.60566C87.25 6.63646 88.2972 6.52097 89.1596 6.25918C90.0219 5.98199 90.8997 5.5739 91.7929 5.03492L92.6244 7.71442ZM86.1105 8.98488C85.5253 8.98488 85.0633 9.16967 84.7245 9.53925C84.4011 9.90884 84.2394 10.4093 84.2394 11.0407C84.2394 11.7029 84.4088 12.2188 84.7476 12.5883C85.0864 12.9579 85.5407 13.1427 86.1105 13.1427C86.7111 13.1427 87.173 12.9656 87.4964 12.6114C87.8198 12.2419 87.9815 11.7029 87.9815 10.9945C87.9815 9.65475 87.3578 8.98488 86.1105 8.98488Z" fill="white"/>
<path d="M101.532 6.58257C103.072 6.58257 104.203 7.15234 104.927 8.2919C105.651 9.41606 106.013 11.0176 106.013 13.0965C106.013 14.3593 105.82 15.4911 105.435 16.4921C105.066 17.4777 104.527 18.2553 103.818 18.8251C103.11 19.3795 102.271 19.6567 101.301 19.6567C100.115 19.6567 99.1448 19.2332 98.3902 18.3862V23.9993L94.7405 24.392V6.99835H97.9744L98.1361 8.3612C98.6135 7.76062 99.1448 7.31404 99.7299 7.02145C100.331 6.72886 100.931 6.58257 101.532 6.58257ZM100.4 9.28517C99.6298 9.28517 98.96 9.76255 98.3902 10.7173V15.8915C98.652 16.2611 98.9215 16.5383 99.1987 16.7231C99.4913 16.8925 99.8223 16.9772 100.192 16.9772C100.869 16.9772 101.378 16.6769 101.716 16.0763C102.071 15.4603 102.248 14.4825 102.248 13.1427C102.248 11.6952 102.094 10.6942 101.786 10.1398C101.478 9.57005 101.016 9.28517 100.4 9.28517Z" fill="white"/>
<path d="M114.989 15.4064C114.989 16.315 115.513 16.7693 116.56 16.7693C117.13 16.7693 117.715 16.6461 118.316 16.3997L119.17 18.8482C118.185 19.3872 117.007 19.6567 115.636 19.6567C114.204 19.6567 113.126 19.2486 112.402 18.4324C111.694 17.6009 111.34 16.4382 111.34 14.9445V4.61914H107.736V2.12443H114.989V15.4064Z" fill="white"/>
<path d="M131.519 6.58257C132.397 6.58257 133.036 6.87515 133.437 7.46033C133.852 8.03011 134.06 8.93868 134.06 10.186V19.264H130.942V10.6018C130.942 10.1552 130.896 9.84724 130.803 9.67785C130.726 9.50846 130.572 9.42376 130.341 9.42376C129.91 9.42376 129.487 9.69325 129.071 10.2322V19.264H126.484V10.6018C126.484 10.1552 126.438 9.84724 126.345 9.67785C126.268 9.50846 126.114 9.42376 125.883 9.42376C125.452 9.42376 125.029 9.69325 124.613 10.2322V19.264H121.448V6.99835H124.105L124.359 8.17641C124.759 7.62203 125.152 7.22164 125.537 6.97525C125.937 6.71346 126.399 6.58257 126.923 6.58257C127.4 6.58257 127.8 6.70576 128.124 6.95215C128.447 7.18314 128.678 7.54503 128.817 8.03781C129.648 7.06765 130.549 6.58257 131.519 6.58257Z" fill="white"/>
<path d="M146.617 15.7298C146.617 16.1764 146.679 16.5075 146.802 16.7231C146.925 16.9387 147.133 17.1004 147.426 17.2082L146.663 19.6105C145.924 19.5335 145.308 19.3718 144.815 19.1254C144.323 18.8636 143.938 18.4863 143.661 17.9935C143.199 18.5325 142.613 18.9483 141.905 19.2409C141.197 19.5181 140.442 19.6567 139.641 19.6567C138.379 19.6567 137.37 19.3025 136.615 18.5941C135.861 17.8703 135.483 16.9387 135.483 15.7991C135.483 14.4748 136.007 13.4507 137.054 12.7269C138.101 11.9878 139.572 11.6182 141.466 11.6182H143.106V11.1793C143.106 9.91654 142.298 9.28517 140.681 9.28517C140.265 9.28517 139.741 9.34676 139.11 9.46996C138.494 9.57775 137.893 9.73175 137.308 9.93194L136.477 7.50653C137.262 7.21394 138.078 6.99065 138.925 6.83666C139.788 6.66726 140.565 6.58257 141.258 6.58257C144.831 6.58257 146.617 8.03011 146.617 10.9252V15.7298ZM140.889 17.0465C141.304 17.0465 141.72 16.931 142.136 16.7C142.567 16.4536 142.891 16.1225 143.106 15.7067V13.6971H142.205C140.234 13.6971 139.249 14.3131 139.249 15.545C139.249 16.0224 139.387 16.392 139.664 16.6538C139.957 16.9156 140.365 17.0465 140.889 17.0465Z" fill="white"/>
</svg>
